<svg width="24" height="24" viewBox="0 0 24 24" fill="none" xmlns="http://www.w3.org/2000/svg">
<path d="M12 24C18.6274 24 24 18.6274 24 12C24 5.37258 18.6274 0 12 0C5.37258 0 0 5.37258 0 12C0 18.6274 5.37258 24 12 24Z" fill="#EA3A3D"/>
<path d="M14.1209 15.5349L11.9999 13.4141L9.87897 15.5349C9.69133 15.7226 9.43681 15.8281 9.17145 15.8281C8.90608 15.8281 8.65157 15.7226 8.46393 15.5349C8.27629 15.3473 8.1709 15.0928 8.1709 14.8274C8.1709 14.562 8.27629 14.3078 8.46393 14.1201L10.585 11.999L8.46393 9.87695C8.27642 9.68931 8.17117 9.43495 8.17126 9.16968C8.17136 8.90441 8.27678 8.64991 8.46442 8.4624C8.65206 8.27489 8.90654 8.16958 9.17181 8.16968C9.43708 8.16977 9.69146 8.27525 9.87897 8.46289L11.9999 10.584L14.1209 8.46289C14.2138 8.36998 14.324 8.2964 14.4454 8.24609C14.5667 8.19579 14.6967 8.16972 14.8281 8.16968C14.9594 8.16963 15.0895 8.19563 15.2109 8.24585C15.3322 8.29607 15.4426 8.36956 15.5355 8.4624C15.6284 8.55525 15.7021 8.66553 15.7524 8.78687C15.8027 8.9082 15.8286 9.03833 15.8286 9.16968C15.8287 9.30103 15.8028 9.43112 15.7526 9.55249C15.7024 9.67386 15.6288 9.78404 15.5359 9.87695L13.4139 12L15.5349 14.1211C15.7226 14.3087 15.828 14.5632 15.828 14.8286C15.828 15.094 15.7226 15.3482 15.5349 15.5359C15.3473 15.7235 15.0928 15.8291 14.8275 15.8291C14.5621 15.8291 14.3076 15.7235 14.1199 15.5359L14.1209 15.5349Z" fill="white"/>
</svg>
