<svg width="11" height="11" viewBox="0 0 11 11" fill="none" xmlns="http://www.w3.org/2000/svg">
<circle cx="5.5" cy="5.5" r="3.5" fill="white"/>
<path d="M5.41659 7.58331C5.53936 7.58331 5.64228 7.54179 5.72534 7.45873C5.80839 7.37567 5.84992 7.27276 5.84992 7.14998C5.84992 7.0272 5.80839 6.92429 5.72534 6.84123C5.64228 6.75817 5.53936 6.71665 5.41659 6.71665C5.29381 6.71665 5.19089 6.75817 5.10784 6.84123C5.02478 6.92429 4.98325 7.0272 4.98325 7.14998C4.98325 7.27276 5.02478 7.37567 5.10784 7.45873C5.19089 7.54179 5.29381 7.58331 5.41659 7.58331ZM4.98325 5.84998H5.84992V3.24998H4.98325V5.84998ZM5.41659 9.74998C4.81714 9.74998 4.25381 9.63623 3.72659 9.40873C3.19936 9.18123 2.74075 8.87248 2.35075 8.48248C1.96075 8.09248 1.652 7.63387 1.4245 7.10665C1.197 6.57942 1.08325 6.01609 1.08325 5.41665C1.08325 4.8172 1.197 4.25387 1.4245 3.72665C1.652 3.19942 1.96075 2.74081 2.35075 2.35081C2.74075 1.96081 3.19936 1.65206 3.72659 1.42456C4.25381 1.19706 4.81714 1.08331 5.41659 1.08331C6.01603 1.08331 6.57936 1.19706 7.10659 1.42456C7.63381 1.65206 8.09242 1.96081 8.48242 2.35081C8.87242 2.74081 9.18117 3.19942 9.40867 3.72665C9.63617 4.25387 9.74992 4.8172 9.74992 5.41665C9.74992 6.01609 9.63617 6.57942 9.40867 7.10665C9.18117 7.63387 8.87242 8.09248 8.48242 8.48248C8.09242 8.87248 7.63381 9.18123 7.10659 9.40873C6.57936 9.63623 6.01603 9.74998 5.41659 9.74998Z" fill="#F04B0F"/>
</svg>
