<svg width="59" height="59" viewBox="0 0 59 59" fill="none" xmlns="http://www.w3.org/2000/svg">
<path d="M17.2778 2H16.6667C11.5329 2 8.96594 2 7.00509 2.99911C5.28027 3.87795 3.87795 5.28027 2.99911 7.00509C2 8.96594 2 11.5329 2 16.6667V17.2778M17.2778 57H16.6667C11.5329 57 8.96594 57 7.00509 56.0009C5.28027 55.1221 3.87795 53.7197 2.99911 51.9949C2 50.0341 2 47.4671 2 42.3333V41.7222M57 17.2778V16.6667C57 11.5329 57 8.96594 56.0009 7.00509C55.1221 5.28027 53.7197 3.87795 51.9949 2.99911C50.0341 2 47.4671 2 42.3333 2H41.7222M57 41.7222V42.3333C57 47.4671 57 50.0341 56.0009 51.9949C55.1221 53.7197 53.7197 55.1221 51.9949 56.0009C50.0341 57 47.4671 57 42.3333 57H41.7222M15.75 17.2778V21.8611M43.25 17.2778V21.8611M26.4444 31.3336C28.8889 31.3336 31.0278 29.1947 31.0278 26.7503V17.2778M39.2784 39.2776C33.7784 44.7776 24.9173 44.7776 19.4173 39.2776" stroke="#F2680C" stroke-width="4" stroke-linecap="round" stroke-linejoin="round"/>
</svg>
