<svg width="24" height="24" viewBox="0 0 24 24" fill="none" xmlns="http://www.w3.org/2000/svg">
<path d="M12 24C18.6274 24 24 18.6274 24 12C24 5.37258 18.6274 0 12 0C5.37258 0 0 5.37258 0 12C0 18.6274 5.37258 24 12 24Z" fill="#014DAF"/>
<path d="M11.0002 17V11C11.0002 10.7348 11.1056 10.4805 11.2932 10.293C11.4807 10.1054 11.735 10 12.0002 10C12.2655 10 12.5198 10.1054 12.7073 10.293C12.8949 10.4805 13.0002 10.7348 13.0002 11V17C13.0002 17.2652 12.8949 17.5195 12.7073 17.707C12.5198 17.8946 12.2655 18 12.0002 18C11.735 18 11.4807 17.8946 11.2932 17.707C11.1056 17.5195 11.0002 17.2652 11.0002 17ZM10.7402 6.87013C10.7402 6.64663 10.8065 6.42802 10.9307 6.2422C11.0548 6.05637 11.2313 5.91146 11.4378 5.82594C11.6443 5.74041 11.8715 5.71813 12.0907 5.76173C12.3099 5.80533 12.5112 5.91302 12.6693 6.07105C12.8273 6.22909 12.9349 6.43047 12.9785 6.64967C13.0221 6.86887 12.9998 7.09602 12.9142 7.3025C12.8287 7.50898 12.6839 7.68541 12.498 7.80958C12.3122 7.93375 12.0937 8.00001 11.8702 8.00001C11.5705 8.00001 11.2831 7.88087 11.0712 7.66895C10.8593 7.45704 10.7402 7.16982 10.7402 6.87013Z" fill="white"/>
</svg>
