<svg width="11" height="11" viewBox="0 0 11 11" fill="none" xmlns="http://www.w3.org/2000/svg">
<circle cx="5.5" cy="5.5" r="3.5" fill="white"/>
<path d="M5.41671 7.58331C5.53949 7.58331 5.6424 7.54179 5.72546 7.45873C5.80851 7.37567 5.85004 7.27276 5.85004 7.14998C5.85004 7.0272 5.80851 6.92429 5.72546 6.84123C5.6424 6.75817 5.53949 6.71665 5.41671 6.71665C5.29393 6.71665 5.19101 6.75817 5.10796 6.84123C5.0249 6.92429 4.98337 7.0272 4.98337 7.14998C4.98337 7.27276 5.0249 7.37567 5.10796 7.45873C5.19101 7.54179 5.29393 7.58331 5.41671 7.58331ZM4.98337 5.84998H5.85004V3.24998H4.98337V5.84998ZM5.41671 9.74998C4.81726 9.74998 4.25393 9.63623 3.72671 9.40873C3.19949 9.18123 2.74087 8.87248 2.35087 8.48248C1.96087 8.09248 1.65212 7.63387 1.42462 7.10665C1.19712 6.57942 1.08337 6.01609 1.08337 5.41665C1.08337 4.8172 1.19712 4.25387 1.42462 3.72665C1.65212 3.19942 1.96087 2.74081 2.35087 2.35081C2.74087 1.96081 3.19949 1.65206 3.72671 1.42456C4.25393 1.19706 4.81726 1.08331 5.41671 1.08331C6.01615 1.08331 6.57949 1.19706 7.10671 1.42456C7.63393 1.65206 8.09254 1.96081 8.48254 2.35081C8.87254 2.74081 9.18129 3.19942 9.40879 3.72665C9.63629 4.25387 9.75004 4.8172 9.75004 5.41665C9.75004 6.01609 9.63629 6.57942 9.40879 7.10665C9.18129 7.63387 8.87254 8.09248 8.48254 8.48248C8.09254 8.87248 7.63393 9.18123 7.10671 9.40873C6.57949 9.63623 6.01615 9.74998 5.41671 9.74998Z" fill="#D98C00"/>
</svg>
