<svg width="15" height="15" viewBox="0 0 15 15" fill="none" xmlns="http://www.w3.org/2000/svg">
<path d="M7.5 15C5.40617 15 3.63275 14.2736 2.17975 12.8207C0.726584 11.3679 0 9.59483 0 7.5015C0 5.40817 0.726584 3.63458 2.17975 2.18075C3.63275 0.726916 5.40617 0 7.5 0C8.66917 0 9.77558 0.259917 10.8193 0.77975C11.8628 1.29975 12.7307 2.03342 13.423 2.98075V0.75C13.423 0.5375 13.4949 0.359417 13.6388 0.21575C13.7826 0.0719168 13.9607 0 14.1733 0C14.3859 0 14.564 0.0719168 14.7075 0.21575C14.8512 0.359417 14.923 0.5375 14.923 0.75V5.2115C14.923 5.46767 14.8364 5.68233 14.6633 5.8555C14.4899 6.02867 14.2753 6.11525 14.0193 6.11525H9.55775C9.34525 6.11525 9.16708 6.04342 9.02325 5.89975C8.87958 5.75592 8.80775 5.57767 8.80775 5.365C8.80775 5.1525 8.87958 4.97442 9.02325 4.83075C9.16708 4.68725 9.34525 4.6155 9.55775 4.6155H12.7578C12.2308 3.65 11.4999 2.88942 10.5653 2.33375C9.63075 1.77792 8.609 1.5 7.5 1.5C5.83333 1.5 4.41667 2.08333 3.25 3.25C2.08333 4.41667 1.5 5.83333 1.5 7.5C1.5 9.16667 2.08333 10.5833 3.25 11.75C4.41667 12.9167 5.83333 13.5 7.5 13.5C8.66217 13.5 9.72608 13.1948 10.6918 12.5845C11.6574 11.9743 12.389 11.1603 12.8865 10.1423C12.9813 9.96025 13.1208 9.833 13.3048 9.7605C13.4888 9.68817 13.6763 9.684 13.8673 9.748C14.0711 9.81217 14.2137 9.9455 14.2952 10.148C14.3766 10.3507 14.3698 10.543 14.275 10.725C13.6557 12.0198 12.7415 13.056 11.5325 13.8335C10.3235 14.6112 8.97933 15 7.5 15Z" fill="#1A1818"/>
</svg>
