<svg width="11" height="11" viewBox="0 0 11 11" fill="none" xmlns="http://www.w3.org/2000/svg">
<circle cx="5.5" cy="5.5" r="3.5" fill="white"/>
<path d="M5.41671 7.58337C5.53949 7.58337 5.6424 7.54185 5.72546 7.45879C5.80851 7.37574 5.85004 7.27282 5.85004 7.15004C5.85004 7.02726 5.80851 6.92435 5.72546 6.84129C5.6424 6.75824 5.53949 6.71671 5.41671 6.71671C5.29393 6.71671 5.19101 6.75824 5.10796 6.84129C5.0249 6.92435 4.98337 7.02726 4.98337 7.15004C4.98337 7.27282 5.0249 7.37574 5.10796 7.45879C5.19101 7.54185 5.29393 7.58337 5.41671 7.58337ZM4.98337 5.85004H5.85004V3.25004H4.98337V5.85004ZM5.41671 9.75004C4.81726 9.75004 4.25393 9.63629 3.72671 9.40879C3.19949 9.18129 2.74087 8.87254 2.35087 8.48254C1.96087 8.09254 1.65212 7.63393 1.42462 7.10671C1.19712 6.57949 1.08337 6.01615 1.08337 5.41671C1.08337 4.81726 1.19712 4.25393 1.42462 3.72671C1.65212 3.19949 1.96087 2.74087 2.35087 2.35087C2.74087 1.96087 3.19949 1.65212 3.72671 1.42462C4.25393 1.19712 4.81726 1.08337 5.41671 1.08337C6.01615 1.08337 6.57949 1.19712 7.10671 1.42462C7.63393 1.65212 8.09254 1.96087 8.48254 2.35087C8.87254 2.74087 9.18129 3.19949 9.40879 3.72671C9.63629 4.25393 9.75004 4.81726 9.75004 5.41671C9.75004 6.01615 9.63629 6.57949 9.40879 7.10671C9.18129 7.63393 8.87254 8.09254 8.48254 8.48254C8.09254 8.87254 7.63393 9.18129 7.10671 9.40879C6.57949 9.63629 6.01615 9.75004 5.41671 9.75004Z" fill="#7D0038"/>
</svg>
