<svg width="24" height="24" viewBox="0 0 24 24" fill="none" xmlns="http://www.w3.org/2000/svg">
<path d="M12 24C18.6274 24 24 18.6274 24 12C24 5.37258 18.6274 0 12 0C5.37258 0 0 5.37258 0 12C0 18.6274 5.37258 24 12 24Z" fill="#3B9F76"/>
<path d="M16.8317 7.00011C16.6831 7.00573 16.5372 7.0415 16.4028 7.10509C16.2684 7.16869 16.1483 7.2589 16.0497 7.37023C14.2497 9.31323 12.6078 11.2192 10.8798 13.1202L8.84875 11.3651C8.7345 11.2649 8.60042 11.1899 8.45525 11.1449C8.31008 11.0999 8.15707 11.0859 8.00616 11.1039C7.85524 11.1219 7.70983 11.1715 7.57934 11.2494C7.44884 11.3273 7.33622 11.4317 7.24877 11.556C7.05967 11.8141 6.97309 12.1335 7.00579 12.4518C7.03849 12.7701 7.18815 13.0649 7.42577 13.2792L10.2687 15.7301C10.4834 15.9169 10.7633 16.0113 11.0474 15.9925C11.3314 15.9738 11.5964 15.8434 11.7847 15.63C13.8297 13.422 15.6617 11.2531 17.6597 9.0941C17.8761 8.85825 17.9975 8.55065 18.0002 8.23058C18.003 7.91051 17.887 7.60076 17.6747 7.36119C17.5685 7.24392 17.4381 7.15079 17.2927 7.08849C17.1472 7.02619 16.9899 6.9961 16.8317 7.00011V7.00011Z" fill="white"/>
</svg>
