<svg width="24" height="24" viewBox="0 0 24 24" fill="none" xmlns="http://www.w3.org/2000/svg">
<path d="M12 24C18.6274 24 24 18.6274 24 12C24 5.37258 18.6274 0 12 0C5.37258 0 0 5.37258 0 12C0 18.6274 5.37258 24 12 24Z" fill="#F9B959"/>
<path d="M10.9998 17V11C10.9998 10.7348 11.1052 10.4805 11.2927 10.293C11.4802 10.1054 11.7346 10 11.9998 10C12.265 10 12.5194 10.1054 12.7069 10.293C12.8944 10.4805 12.9998 10.7348 12.9998 11V17C12.9998 17.2652 12.8944 17.5195 12.7069 17.707C12.5194 17.8946 12.265 18 11.9998 18C11.7346 18 11.4802 17.8946 11.2927 17.707C11.1052 17.5195 10.9998 17.2652 10.9998 17ZM10.7398 6.87013C10.7378 6.64622 10.8024 6.42665 10.9253 6.23951C11.0483 6.05237 11.2241 5.90592 11.4304 5.81886C11.6367 5.7318 11.8642 5.70803 12.084 5.7505C12.3039 5.79297 12.5062 5.89976 12.6652 6.05738C12.8242 6.21501 12.9329 6.41629 12.9773 6.63575C13.0217 6.85522 12.9999 7.08299 12.9147 7.29005C12.8295 7.49711 12.6847 7.67423 12.4986 7.79884C12.3126 7.92345 12.0937 7.98999 11.8698 7.99C11.7221 7.99066 11.5756 7.96219 11.4389 7.90626C11.3021 7.85033 11.1778 7.76808 11.0729 7.66407C10.9679 7.56007 10.8845 7.4363 10.8274 7.30006C10.7702 7.16382 10.7404 7.01787 10.7398 6.87013V6.87013Z" fill="white"/>
</svg>
